<?xml version="1.0" standalone="no"?>
<!DOCTYPE svg PUBLIC "-//W3C//DTD SVG 20010904//EN"
 "http://www.w3.org/TR/2001/REC-SVG-20010904/DTD/svg10.dtd">
<svg version="1.0" xmlns="http://www.w3.org/2000/svg"
 width="512.000000pt" height="512.000000pt" viewBox="0 0 512.000000 512.000000"
 preserveAspectRatio="xMidYMid meet">

<g transform="translate(0.000000,512.000000) scale(0.100000,-0.100000)"
fill="#000000" stroke="none">
<path d="M1147 5105 c-50 -17 -85 -50 -108 -100 -17 -36 -19 -69 -19 -309 l0
-269 -41 -44 c-63 -68 -84 -123 -84 -218 0 -98 25 -158 92 -227 64 -65 129
-92 223 -92 92 0 148 23 219 89 69 65 96 129 95 230 0 93 -21 146 -85 219
l-39 44 0 259 c0 157 -4 274 -11 298 -20 72 -108 136 -184 135 -11 -1 -37 -7
-58 -15z m-104 -862 c48 -91 150 -127 242 -84 66 30 115 102 115 167 0 23 2
25 17 13 31 -26 63 -111 63 -170 0 -152 -104 -266 -252 -277 -158 -12 -288
109 -288 267 0 68 23 136 58 174 16 18 17 17 24 -21 4 -22 13 -53 21 -69z"/>
<path d="M3835 5046 c-41 -18 -92 -77 -104 -123 -6 -22 -11 -139 -11 -271 l0
-233 -30 -25 c-16 -14 -44 -55 -62 -92 -64 -130 -37 -275 68 -372 67 -62 124
-84 214 -84 126 0 227 62 288 177 23 45 27 64 27 137 0 100 -20 154 -84 223
l-41 44 0 243 c0 229 -1 246 -21 288 -42 86 -155 127 -244 88z m-100 -841 c47
-117 191 -155 294 -78 45 35 70 94 71 168 l1 60 28 -33 c58 -68 69 -192 25
-280 -107 -216 -423 -194 -501 34 -28 81 -7 197 46 258 15 17 16 15 22 -45 4
-35 10 -73 14 -84z"/>
</g>
</svg>
